# xmcd CD database file
#
# Track frame offsets:
#	150
#	18872
#	35657
#
# Disc length: 711 seconds
#
# Revision: 1
# Processed by: cddbd v1.4PL0 Copyright (c) Steve Scherf et al.
# Submitted via: CDex 1.40Release
#
DISCID=1a02c503
DTITLE=Chynna Phillips - Naked And Sacred
DYEAR=1995
DGENRE=Top 40
TTITLE0=Naked And Sacred
TTITLE1=Follow Love Down
TTITLE2=Life Ain't No Dress Rehersal
EXTD=YEAR: 1995 ID3G: 60
EXTT0=
EXTT1=
EXTT2=
PLAYORDER=
